%TF.GenerationSoftware,KiCad,Pcbnew,9.0.5*%
%TF.CreationDate,2025-11-15T20:55:57+01:00*%
%TF.ProjectId,FV1 Panel,46563120-5061-46e6-956c-2e6b69636164,rev?*%
%TF.SameCoordinates,Original*%
%TF.FileFunction,Legend,Bot*%
%TF.FilePolarity,Positive*%
%FSLAX46Y46*%
G04 Gerber Fmt 4.6, Leading zero omitted, Abs format (unit mm)*
G04 Created by KiCad (PCBNEW 9.0.5) date 2025-11-15 20:55:57*
%MOMM*%
%LPD*%
G01*
G04 APERTURE LIST*
%ADD10C,0.100000*%
G04 APERTURE END LIST*
D10*
X126173994Y-100288160D02*
X127602565Y-100288160D01*
X127602565Y-100288160D02*
X127888279Y-100192921D01*
X127888279Y-100192921D02*
X128078756Y-100002445D01*
X128078756Y-100002445D02*
X128173994Y-99716731D01*
X128173994Y-99716731D02*
X128173994Y-99526255D01*
X128173994Y-102192922D02*
X128173994Y-101240541D01*
X128173994Y-101240541D02*
X126173994Y-101240541D01*
X127983517Y-104002446D02*
X128078756Y-103907208D01*
X128078756Y-103907208D02*
X128173994Y-103621494D01*
X128173994Y-103621494D02*
X128173994Y-103431018D01*
X128173994Y-103431018D02*
X128078756Y-103145303D01*
X128078756Y-103145303D02*
X127888279Y-102954827D01*
X127888279Y-102954827D02*
X127697803Y-102859589D01*
X127697803Y-102859589D02*
X127316851Y-102764351D01*
X127316851Y-102764351D02*
X127031136Y-102764351D01*
X127031136Y-102764351D02*
X126650184Y-102859589D01*
X126650184Y-102859589D02*
X126459708Y-102954827D01*
X126459708Y-102954827D02*
X126269232Y-103145303D01*
X126269232Y-103145303D02*
X126173994Y-103431018D01*
X126173994Y-103431018D02*
X126173994Y-103621494D01*
X126173994Y-103621494D02*
X126269232Y-103907208D01*
X126269232Y-103907208D02*
X126364470Y-104002446D01*
X126173994Y-105431018D02*
X127602565Y-105431018D01*
X127602565Y-105431018D02*
X127888279Y-105335779D01*
X127888279Y-105335779D02*
X128078756Y-105145303D01*
X128078756Y-105145303D02*
X128173994Y-104859589D01*
X128173994Y-104859589D02*
X128173994Y-104669113D01*
X128173994Y-107335780D02*
X128173994Y-106383399D01*
X128173994Y-106383399D02*
X126173994Y-106383399D01*
X127983517Y-109145304D02*
X128078756Y-109050066D01*
X128078756Y-109050066D02*
X128173994Y-108764352D01*
X128173994Y-108764352D02*
X128173994Y-108573876D01*
X128173994Y-108573876D02*
X128078756Y-108288161D01*
X128078756Y-108288161D02*
X127888279Y-108097685D01*
X127888279Y-108097685D02*
X127697803Y-108002447D01*
X127697803Y-108002447D02*
X127316851Y-107907209D01*
X127316851Y-107907209D02*
X127031136Y-107907209D01*
X127031136Y-107907209D02*
X126650184Y-108002447D01*
X126650184Y-108002447D02*
X126459708Y-108097685D01*
X126459708Y-108097685D02*
X126269232Y-108288161D01*
X126269232Y-108288161D02*
X126173994Y-108573876D01*
X126173994Y-108573876D02*
X126173994Y-108764352D01*
X126173994Y-108764352D02*
X126269232Y-109050066D01*
X126269232Y-109050066D02*
X126364470Y-109145304D01*
X126173994Y-110573876D02*
X127602565Y-110573876D01*
X127602565Y-110573876D02*
X127888279Y-110478637D01*
X127888279Y-110478637D02*
X128078756Y-110288161D01*
X128078756Y-110288161D02*
X128173994Y-110002447D01*
X128173994Y-110002447D02*
X128173994Y-109811971D01*
X128173994Y-112478638D02*
X128173994Y-111526257D01*
X128173994Y-111526257D02*
X126173994Y-111526257D01*
X127983517Y-114288162D02*
X128078756Y-114192924D01*
X128078756Y-114192924D02*
X128173994Y-113907210D01*
X128173994Y-113907210D02*
X128173994Y-113716734D01*
X128173994Y-113716734D02*
X128078756Y-113431019D01*
X128078756Y-113431019D02*
X127888279Y-113240543D01*
X127888279Y-113240543D02*
X127697803Y-113145305D01*
X127697803Y-113145305D02*
X127316851Y-113050067D01*
X127316851Y-113050067D02*
X127031136Y-113050067D01*
X127031136Y-113050067D02*
X126650184Y-113145305D01*
X126650184Y-113145305D02*
X126459708Y-113240543D01*
X126459708Y-113240543D02*
X126269232Y-113431019D01*
X126269232Y-113431019D02*
X126173994Y-113716734D01*
X126173994Y-113716734D02*
X126173994Y-113907210D01*
X126173994Y-113907210D02*
X126269232Y-114192924D01*
X126269232Y-114192924D02*
X126364470Y-114288162D01*
X126173994Y-115716734D02*
X127602565Y-115716734D01*
X127602565Y-115716734D02*
X127888279Y-115621495D01*
X127888279Y-115621495D02*
X128078756Y-115431019D01*
X128078756Y-115431019D02*
X128173994Y-115145305D01*
X128173994Y-115145305D02*
X128173994Y-114954829D01*
X128173994Y-117621496D02*
X128173994Y-116669115D01*
X128173994Y-116669115D02*
X126173994Y-116669115D01*
X127983517Y-119431020D02*
X128078756Y-119335782D01*
X128078756Y-119335782D02*
X128173994Y-119050068D01*
X128173994Y-119050068D02*
X128173994Y-118859592D01*
X128173994Y-118859592D02*
X128078756Y-118573877D01*
X128078756Y-118573877D02*
X127888279Y-118383401D01*
X127888279Y-118383401D02*
X127697803Y-118288163D01*
X127697803Y-118288163D02*
X127316851Y-118192925D01*
X127316851Y-118192925D02*
X127031136Y-118192925D01*
X127031136Y-118192925D02*
X126650184Y-118288163D01*
X126650184Y-118288163D02*
X126459708Y-118383401D01*
X126459708Y-118383401D02*
X126269232Y-118573877D01*
X126269232Y-118573877D02*
X126173994Y-118859592D01*
X126173994Y-118859592D02*
X126173994Y-119050068D01*
X126173994Y-119050068D02*
X126269232Y-119335782D01*
X126269232Y-119335782D02*
X126364470Y-119431020D01*
M02*
