M48
; DRILL file {KiCad 9.0.6} date 2025-12-30T09:15:03+0100
; FORMAT={-:-/ absolute / metric / decimal}
; #@! TF.CreationDate,2025-12-30T09:15:03+01:00
; #@! TF.GenerationSoftware,Kicad,Pcbnew,9.0.6
; #@! TF.FileFunction,Plated,1,2,PTH
FMAT,2
METRIC
; #@! TA.AperFunction,Plated,PTH,ViaDrill
T1C0.400
; #@! TA.AperFunction,Plated,PTH,ComponentDrill
T2C0.500
; #@! TA.AperFunction,Plated,PTH,ComponentDrill
T3C0.800
; #@! TA.AperFunction,Plated,PTH,ComponentDrill
T4C0.900
; #@! TA.AperFunction,Plated,PTH,ComponentDrill
T5C1.000
; #@! TA.AperFunction,Plated,PTH,ComponentDrill
T6C1.100
; #@! TA.AperFunction,Plated,PTH,ComponentDrill
T7C1.200
; #@! TA.AperFunction,Plated,PTH,ComponentDrill
T8C1.220
; #@! TA.AperFunction,Plated,PTH,ComponentDrill
T9C1.420
; #@! TA.AperFunction,Plated,PTH,ComponentDrill
T10C1.430
; #@! TA.AperFunction,Plated,PTH,ComponentDrill
T11C1.500
%
G90
G05
T1
X143.15Y-38.83
X143.19Y-146.98
X143.4Y-115.1
X143.64Y-61.73
X144.8Y-113.9
X146.1Y-115.1
X146.9Y-81.53
X146.94Y-70.71
X147.68Y-60.8
X149.8Y-107.8
X150.494Y-116.364
X150.545Y-114.868
X150.62Y-111.29
X151.6Y-118.25
X153.32Y-57.89
X153.32Y-59.68
X154.35Y-125.6
X154.66Y-75.56
X154.89Y-133.6
X156.31Y-120.07
X157.45Y-100.24
X157.555Y-111.455
X157.6Y-109.95
X157.77Y-108.02
X158.62Y-142.47
X158.84Y-138.46
X158.84Y-140.36
X158.86Y-136.54
X159.2Y-82.1
X160.69Y-144.01
X161.53Y-78.42
X162.45Y-107.44
X162.45Y-118.42
X162.46Y-114.41
X163.06Y-116.32
X163.12Y-86.456
X163.18Y-102.09
X163.29Y-133.59
X163.45Y-138.4
X163.77Y-57.55
X164.55Y-142.7
X165.25Y-136.3
X165.7Y-70.76
X166.05Y-115.08
X166.05Y-140.85
X166.45Y-105.5
X166.6Y-107.45
X166.88Y-112.51
X167.24Y-95.9
X167.24Y-100.21
X169.77Y-99.5
X170.5Y-108.7
X171.55Y-112.4
X171.64Y-54.35
X172.213Y-80.55
X172.58Y-59.17
X173.25Y-83.85
X173.49Y-62.7
X175.325Y-116.025
X175.65Y-71.15
X175.7Y-110.25
X176.9Y-95.45
X177.44Y-72.86
X179.909Y-83.1
X181.7Y-99.9
X185.89Y-74.9
X189.84Y-79.03
X190.77Y-147.12
X190.85Y-38.8
T2
X171.9Y-115.6
X171.9Y-117.1
T3
X153.96Y-97.16
X155.0Y-128.8
X156.5Y-97.16
X157.5Y-128.8
X158.98Y-89.55
X158.98Y-92.05
X159.04Y-97.16
X160.8Y-128.7
X163.3Y-128.7
X171.89Y-41.72
X174.39Y-41.72
X178.66Y-51.07
X178.66Y-58.69
X179.36Y-41.72
X181.2Y-51.07
X181.2Y-58.69
X181.86Y-41.72
X183.2Y-47.85
X183.74Y-51.07
X183.74Y-58.69
X185.74Y-47.85
X186.28Y-51.07
X186.28Y-58.69
X186.918Y-41.72
X188.28Y-47.85
X189.418Y-41.72
T4
X173.635Y-138.77
X176.175Y-138.77
T5
X148.21Y-43.84
X148.21Y-46.38
X148.21Y-48.92
X148.21Y-51.46
X148.21Y-54.0
X148.5Y-72.7
X148.5Y-93.7
X148.5Y-99.7
X150.75Y-43.84
X150.75Y-46.38
X150.75Y-48.92
X150.75Y-51.46
X150.75Y-54.0
X151.0Y-72.7
X151.0Y-93.7
X151.0Y-99.7
X153.5Y-72.7
X153.5Y-93.7
X153.5Y-99.7
X164.5Y-68.18
X164.5Y-89.2
X167.0Y-68.18
X167.0Y-89.2
X169.5Y-68.18
X169.5Y-89.2
X180.49Y-114.78
X180.5Y-72.7
X180.5Y-93.7
X182.99Y-114.78
X183.0Y-72.7
X183.0Y-93.7
X185.49Y-114.78
X185.5Y-72.7
X185.5Y-93.7
T6
X156.29Y-40.15
X156.39Y-46.523
X156.39Y-50.333
X160.1Y-40.15
X160.243Y-44.04
X164.01Y-40.11
X164.053Y-44.04
X167.82Y-40.11
T7
X159.609Y-51.639
X159.609Y-57.761
X163.939Y-47.309
X163.939Y-62.091
X164.35Y-54.7
X170.061Y-47.309
X170.061Y-62.091
X174.391Y-51.639
X174.391Y-57.761
T8
X144.51Y-122.7
X151.0Y-132.2
X160.52Y-122.76
X176.51Y-122.74
X183.0Y-132.2
T9
X147.61Y-122.7
X151.0Y-135.3
X163.62Y-122.76
X179.61Y-122.74
X183.0Y-135.3
T10
X151.0Y-143.6
X155.91Y-122.7
X171.92Y-122.76
X183.0Y-143.6
X187.91Y-122.74
T6
G00X146.2Y-64.85
M15
G01X146.2Y-65.55
M16
G05
G00X146.2Y-107.55
M15
G01X146.2Y-106.85
M16
G05
G00X155.8Y-64.85
M15
G01X155.8Y-65.55
M16
G05
G00X155.8Y-107.55
M15
G01X155.8Y-106.85
M16
G05
G00X162.2Y-76.03
M15
G01X162.2Y-75.33
M16
G05
G00X171.8Y-76.03
M15
G01X171.8Y-75.33
M16
G05
G00X178.19Y-106.93
M15
G01X178.19Y-107.63
M16
G05
G00X178.2Y-64.85
M15
G01X178.2Y-65.55
M16
G05
G00X187.79Y-106.93
M15
G01X187.79Y-107.63
M16
G05
G00X187.8Y-64.85
M15
G01X187.8Y-65.55
M16
G05
T11
G00X146.2Y-86.95
M15
G01X146.2Y-85.45
M16
G05
G00X155.8Y-86.95
M15
G01X155.8Y-85.45
M16
G05
G00X162.2Y-95.95
M15
G01X162.2Y-97.45
M16
G05
G00X171.8Y-95.95
M15
G01X171.8Y-97.45
M16
G05
G00X178.2Y-86.95
M15
G01X178.2Y-85.45
M16
G05
G00X187.8Y-86.95
M15
G01X187.8Y-85.45
M16
G05
M30
