%TF.GenerationSoftware,KiCad,Pcbnew,9.0.6*%
%TF.CreationDate,2025-12-30T09:15:01+01:00*%
%TF.ProjectId,FV1 V3,46563120-5633-42e6-9b69-6361645f7063,rev?*%
%TF.SameCoordinates,Original*%
%TF.FileFunction,Legend,Bot*%
%TF.FilePolarity,Positive*%
%FSLAX46Y46*%
G04 Gerber Fmt 4.6, Leading zero omitted, Abs format (unit mm)*
G04 Created by KiCad (PCBNEW 9.0.6) date 2025-12-30 09:15:01*
%MOMM*%
%LPD*%
G01*
G04 APERTURE LIST*
%ADD10C,0.150000*%
%ADD11C,0.120000*%
G04 APERTURE END LIST*
D10*
X189726189Y-96912295D02*
X189992856Y-96531342D01*
X190183332Y-96912295D02*
X190183332Y-96112295D01*
X190183332Y-96112295D02*
X189878570Y-96112295D01*
X189878570Y-96112295D02*
X189802380Y-96150390D01*
X189802380Y-96150390D02*
X189764285Y-96188485D01*
X189764285Y-96188485D02*
X189726189Y-96264676D01*
X189726189Y-96264676D02*
X189726189Y-96378961D01*
X189726189Y-96378961D02*
X189764285Y-96455152D01*
X189764285Y-96455152D02*
X189802380Y-96493247D01*
X189802380Y-96493247D02*
X189878570Y-96531342D01*
X189878570Y-96531342D02*
X190183332Y-96531342D01*
X189497618Y-96112295D02*
X189230951Y-96912295D01*
X189230951Y-96912295D02*
X188964285Y-96112295D01*
X188278571Y-96912295D02*
X188735714Y-96912295D01*
X188507142Y-96912295D02*
X188507142Y-96112295D01*
X188507142Y-96112295D02*
X188583333Y-96226580D01*
X188583333Y-96226580D02*
X188659523Y-96302771D01*
X188659523Y-96302771D02*
X188735714Y-96340866D01*
X187311904Y-96431009D02*
X187169047Y-96478628D01*
X187169047Y-96478628D02*
X187121428Y-96526247D01*
X187121428Y-96526247D02*
X187073809Y-96621485D01*
X187073809Y-96621485D02*
X187073809Y-96764342D01*
X187073809Y-96764342D02*
X187121428Y-96859580D01*
X187121428Y-96859580D02*
X187169047Y-96907200D01*
X187169047Y-96907200D02*
X187264285Y-96954819D01*
X187264285Y-96954819D02*
X187645237Y-96954819D01*
X187645237Y-96954819D02*
X187645237Y-95954819D01*
X187645237Y-95954819D02*
X187311904Y-95954819D01*
X187311904Y-95954819D02*
X187216666Y-96002438D01*
X187216666Y-96002438D02*
X187169047Y-96050057D01*
X187169047Y-96050057D02*
X187121428Y-96145295D01*
X187121428Y-96145295D02*
X187121428Y-96240533D01*
X187121428Y-96240533D02*
X187169047Y-96335771D01*
X187169047Y-96335771D02*
X187216666Y-96383390D01*
X187216666Y-96383390D02*
X187311904Y-96431009D01*
X187311904Y-96431009D02*
X187645237Y-96431009D01*
X186121428Y-96954819D02*
X186692856Y-96954819D01*
X186407142Y-96954819D02*
X186407142Y-95954819D01*
X186407142Y-95954819D02*
X186502380Y-96097676D01*
X186502380Y-96097676D02*
X186597618Y-96192914D01*
X186597618Y-96192914D02*
X186692856Y-96240533D01*
X185502380Y-95954819D02*
X185407142Y-95954819D01*
X185407142Y-95954819D02*
X185311904Y-96002438D01*
X185311904Y-96002438D02*
X185264285Y-96050057D01*
X185264285Y-96050057D02*
X185216666Y-96145295D01*
X185216666Y-96145295D02*
X185169047Y-96335771D01*
X185169047Y-96335771D02*
X185169047Y-96573866D01*
X185169047Y-96573866D02*
X185216666Y-96764342D01*
X185216666Y-96764342D02*
X185264285Y-96859580D01*
X185264285Y-96859580D02*
X185311904Y-96907200D01*
X185311904Y-96907200D02*
X185407142Y-96954819D01*
X185407142Y-96954819D02*
X185502380Y-96954819D01*
X185502380Y-96954819D02*
X185597618Y-96907200D01*
X185597618Y-96907200D02*
X185645237Y-96859580D01*
X185645237Y-96859580D02*
X185692856Y-96764342D01*
X185692856Y-96764342D02*
X185740475Y-96573866D01*
X185740475Y-96573866D02*
X185740475Y-96335771D01*
X185740475Y-96335771D02*
X185692856Y-96145295D01*
X185692856Y-96145295D02*
X185645237Y-96050057D01*
X185645237Y-96050057D02*
X185597618Y-96002438D01*
X185597618Y-96002438D02*
X185502380Y-95954819D01*
X184549999Y-95954819D02*
X184454761Y-95954819D01*
X184454761Y-95954819D02*
X184359523Y-96002438D01*
X184359523Y-96002438D02*
X184311904Y-96050057D01*
X184311904Y-96050057D02*
X184264285Y-96145295D01*
X184264285Y-96145295D02*
X184216666Y-96335771D01*
X184216666Y-96335771D02*
X184216666Y-96573866D01*
X184216666Y-96573866D02*
X184264285Y-96764342D01*
X184264285Y-96764342D02*
X184311904Y-96859580D01*
X184311904Y-96859580D02*
X184359523Y-96907200D01*
X184359523Y-96907200D02*
X184454761Y-96954819D01*
X184454761Y-96954819D02*
X184549999Y-96954819D01*
X184549999Y-96954819D02*
X184645237Y-96907200D01*
X184645237Y-96907200D02*
X184692856Y-96859580D01*
X184692856Y-96859580D02*
X184740475Y-96764342D01*
X184740475Y-96764342D02*
X184788094Y-96573866D01*
X184788094Y-96573866D02*
X184788094Y-96335771D01*
X184788094Y-96335771D02*
X184740475Y-96145295D01*
X184740475Y-96145295D02*
X184692856Y-96050057D01*
X184692856Y-96050057D02*
X184645237Y-96002438D01*
X184645237Y-96002438D02*
X184549999Y-95954819D01*
X183788094Y-96954819D02*
X183788094Y-95954819D01*
X183692856Y-96573866D02*
X183407142Y-96954819D01*
X183407142Y-96288152D02*
X183788094Y-96669104D01*
X161226189Y-86712295D02*
X161492856Y-86331342D01*
X161683332Y-86712295D02*
X161683332Y-85912295D01*
X161683332Y-85912295D02*
X161378570Y-85912295D01*
X161378570Y-85912295D02*
X161302380Y-85950390D01*
X161302380Y-85950390D02*
X161264285Y-85988485D01*
X161264285Y-85988485D02*
X161226189Y-86064676D01*
X161226189Y-86064676D02*
X161226189Y-86178961D01*
X161226189Y-86178961D02*
X161264285Y-86255152D01*
X161264285Y-86255152D02*
X161302380Y-86293247D01*
X161302380Y-86293247D02*
X161378570Y-86331342D01*
X161378570Y-86331342D02*
X161683332Y-86331342D01*
X160997618Y-85912295D02*
X160730951Y-86712295D01*
X160730951Y-86712295D02*
X160464285Y-85912295D01*
X160235714Y-85988485D02*
X160197618Y-85950390D01*
X160197618Y-85950390D02*
X160121428Y-85912295D01*
X160121428Y-85912295D02*
X159930952Y-85912295D01*
X159930952Y-85912295D02*
X159854761Y-85950390D01*
X159854761Y-85950390D02*
X159816666Y-85988485D01*
X159816666Y-85988485D02*
X159778571Y-86064676D01*
X159778571Y-86064676D02*
X159778571Y-86140866D01*
X159778571Y-86140866D02*
X159816666Y-86255152D01*
X159816666Y-86255152D02*
X160273809Y-86712295D01*
X160273809Y-86712295D02*
X159778571Y-86712295D01*
X166211904Y-86331009D02*
X166069047Y-86378628D01*
X166069047Y-86378628D02*
X166021428Y-86426247D01*
X166021428Y-86426247D02*
X165973809Y-86521485D01*
X165973809Y-86521485D02*
X165973809Y-86664342D01*
X165973809Y-86664342D02*
X166021428Y-86759580D01*
X166021428Y-86759580D02*
X166069047Y-86807200D01*
X166069047Y-86807200D02*
X166164285Y-86854819D01*
X166164285Y-86854819D02*
X166545237Y-86854819D01*
X166545237Y-86854819D02*
X166545237Y-85854819D01*
X166545237Y-85854819D02*
X166211904Y-85854819D01*
X166211904Y-85854819D02*
X166116666Y-85902438D01*
X166116666Y-85902438D02*
X166069047Y-85950057D01*
X166069047Y-85950057D02*
X166021428Y-86045295D01*
X166021428Y-86045295D02*
X166021428Y-86140533D01*
X166021428Y-86140533D02*
X166069047Y-86235771D01*
X166069047Y-86235771D02*
X166116666Y-86283390D01*
X166116666Y-86283390D02*
X166211904Y-86331009D01*
X166211904Y-86331009D02*
X166545237Y-86331009D01*
X165021428Y-86854819D02*
X165592856Y-86854819D01*
X165307142Y-86854819D02*
X165307142Y-85854819D01*
X165307142Y-85854819D02*
X165402380Y-85997676D01*
X165402380Y-85997676D02*
X165497618Y-86092914D01*
X165497618Y-86092914D02*
X165592856Y-86140533D01*
X164402380Y-85854819D02*
X164307142Y-85854819D01*
X164307142Y-85854819D02*
X164211904Y-85902438D01*
X164211904Y-85902438D02*
X164164285Y-85950057D01*
X164164285Y-85950057D02*
X164116666Y-86045295D01*
X164116666Y-86045295D02*
X164069047Y-86235771D01*
X164069047Y-86235771D02*
X164069047Y-86473866D01*
X164069047Y-86473866D02*
X164116666Y-86664342D01*
X164116666Y-86664342D02*
X164164285Y-86759580D01*
X164164285Y-86759580D02*
X164211904Y-86807200D01*
X164211904Y-86807200D02*
X164307142Y-86854819D01*
X164307142Y-86854819D02*
X164402380Y-86854819D01*
X164402380Y-86854819D02*
X164497618Y-86807200D01*
X164497618Y-86807200D02*
X164545237Y-86759580D01*
X164545237Y-86759580D02*
X164592856Y-86664342D01*
X164592856Y-86664342D02*
X164640475Y-86473866D01*
X164640475Y-86473866D02*
X164640475Y-86235771D01*
X164640475Y-86235771D02*
X164592856Y-86045295D01*
X164592856Y-86045295D02*
X164545237Y-85950057D01*
X164545237Y-85950057D02*
X164497618Y-85902438D01*
X164497618Y-85902438D02*
X164402380Y-85854819D01*
X163449999Y-85854819D02*
X163354761Y-85854819D01*
X163354761Y-85854819D02*
X163259523Y-85902438D01*
X163259523Y-85902438D02*
X163211904Y-85950057D01*
X163211904Y-85950057D02*
X163164285Y-86045295D01*
X163164285Y-86045295D02*
X163116666Y-86235771D01*
X163116666Y-86235771D02*
X163116666Y-86473866D01*
X163116666Y-86473866D02*
X163164285Y-86664342D01*
X163164285Y-86664342D02*
X163211904Y-86759580D01*
X163211904Y-86759580D02*
X163259523Y-86807200D01*
X163259523Y-86807200D02*
X163354761Y-86854819D01*
X163354761Y-86854819D02*
X163449999Y-86854819D01*
X163449999Y-86854819D02*
X163545237Y-86807200D01*
X163545237Y-86807200D02*
X163592856Y-86759580D01*
X163592856Y-86759580D02*
X163640475Y-86664342D01*
X163640475Y-86664342D02*
X163688094Y-86473866D01*
X163688094Y-86473866D02*
X163688094Y-86235771D01*
X163688094Y-86235771D02*
X163640475Y-86045295D01*
X163640475Y-86045295D02*
X163592856Y-85950057D01*
X163592856Y-85950057D02*
X163545237Y-85902438D01*
X163545237Y-85902438D02*
X163449999Y-85854819D01*
X162688094Y-86854819D02*
X162688094Y-85854819D01*
X162592856Y-86473866D02*
X162307142Y-86854819D01*
X162307142Y-86188152D02*
X162688094Y-86569104D01*
X175626189Y-78812295D02*
X175892856Y-78431342D01*
X176083332Y-78812295D02*
X176083332Y-78012295D01*
X176083332Y-78012295D02*
X175778570Y-78012295D01*
X175778570Y-78012295D02*
X175702380Y-78050390D01*
X175702380Y-78050390D02*
X175664285Y-78088485D01*
X175664285Y-78088485D02*
X175626189Y-78164676D01*
X175626189Y-78164676D02*
X175626189Y-78278961D01*
X175626189Y-78278961D02*
X175664285Y-78355152D01*
X175664285Y-78355152D02*
X175702380Y-78393247D01*
X175702380Y-78393247D02*
X175778570Y-78431342D01*
X175778570Y-78431342D02*
X176083332Y-78431342D01*
X175397618Y-78012295D02*
X175130951Y-78812295D01*
X175130951Y-78812295D02*
X174864285Y-78012295D01*
X174254761Y-78012295D02*
X174407142Y-78012295D01*
X174407142Y-78012295D02*
X174483333Y-78050390D01*
X174483333Y-78050390D02*
X174521428Y-78088485D01*
X174521428Y-78088485D02*
X174597618Y-78202771D01*
X174597618Y-78202771D02*
X174635714Y-78355152D01*
X174635714Y-78355152D02*
X174635714Y-78659914D01*
X174635714Y-78659914D02*
X174597618Y-78736104D01*
X174597618Y-78736104D02*
X174559523Y-78774200D01*
X174559523Y-78774200D02*
X174483333Y-78812295D01*
X174483333Y-78812295D02*
X174330952Y-78812295D01*
X174330952Y-78812295D02*
X174254761Y-78774200D01*
X174254761Y-78774200D02*
X174216666Y-78736104D01*
X174216666Y-78736104D02*
X174178571Y-78659914D01*
X174178571Y-78659914D02*
X174178571Y-78469438D01*
X174178571Y-78469438D02*
X174216666Y-78393247D01*
X174216666Y-78393247D02*
X174254761Y-78355152D01*
X174254761Y-78355152D02*
X174330952Y-78317057D01*
X174330952Y-78317057D02*
X174483333Y-78317057D01*
X174483333Y-78317057D02*
X174559523Y-78355152D01*
X174559523Y-78355152D02*
X174597618Y-78393247D01*
X174597618Y-78393247D02*
X174635714Y-78469438D01*
X175111904Y-68031009D02*
X174969047Y-68078628D01*
X174969047Y-68078628D02*
X174921428Y-68126247D01*
X174921428Y-68126247D02*
X174873809Y-68221485D01*
X174873809Y-68221485D02*
X174873809Y-68364342D01*
X174873809Y-68364342D02*
X174921428Y-68459580D01*
X174921428Y-68459580D02*
X174969047Y-68507200D01*
X174969047Y-68507200D02*
X175064285Y-68554819D01*
X175064285Y-68554819D02*
X175445237Y-68554819D01*
X175445237Y-68554819D02*
X175445237Y-67554819D01*
X175445237Y-67554819D02*
X175111904Y-67554819D01*
X175111904Y-67554819D02*
X175016666Y-67602438D01*
X175016666Y-67602438D02*
X174969047Y-67650057D01*
X174969047Y-67650057D02*
X174921428Y-67745295D01*
X174921428Y-67745295D02*
X174921428Y-67840533D01*
X174921428Y-67840533D02*
X174969047Y-67935771D01*
X174969047Y-67935771D02*
X175016666Y-67983390D01*
X175016666Y-67983390D02*
X175111904Y-68031009D01*
X175111904Y-68031009D02*
X175445237Y-68031009D01*
X173921428Y-68554819D02*
X174492856Y-68554819D01*
X174207142Y-68554819D02*
X174207142Y-67554819D01*
X174207142Y-67554819D02*
X174302380Y-67697676D01*
X174302380Y-67697676D02*
X174397618Y-67792914D01*
X174397618Y-67792914D02*
X174492856Y-67840533D01*
X173302380Y-67554819D02*
X173207142Y-67554819D01*
X173207142Y-67554819D02*
X173111904Y-67602438D01*
X173111904Y-67602438D02*
X173064285Y-67650057D01*
X173064285Y-67650057D02*
X173016666Y-67745295D01*
X173016666Y-67745295D02*
X172969047Y-67935771D01*
X172969047Y-67935771D02*
X172969047Y-68173866D01*
X172969047Y-68173866D02*
X173016666Y-68364342D01*
X173016666Y-68364342D02*
X173064285Y-68459580D01*
X173064285Y-68459580D02*
X173111904Y-68507200D01*
X173111904Y-68507200D02*
X173207142Y-68554819D01*
X173207142Y-68554819D02*
X173302380Y-68554819D01*
X173302380Y-68554819D02*
X173397618Y-68507200D01*
X173397618Y-68507200D02*
X173445237Y-68459580D01*
X173445237Y-68459580D02*
X173492856Y-68364342D01*
X173492856Y-68364342D02*
X173540475Y-68173866D01*
X173540475Y-68173866D02*
X173540475Y-67935771D01*
X173540475Y-67935771D02*
X173492856Y-67745295D01*
X173492856Y-67745295D02*
X173445237Y-67650057D01*
X173445237Y-67650057D02*
X173397618Y-67602438D01*
X173397618Y-67602438D02*
X173302380Y-67554819D01*
X172349999Y-67554819D02*
X172254761Y-67554819D01*
X172254761Y-67554819D02*
X172159523Y-67602438D01*
X172159523Y-67602438D02*
X172111904Y-67650057D01*
X172111904Y-67650057D02*
X172064285Y-67745295D01*
X172064285Y-67745295D02*
X172016666Y-67935771D01*
X172016666Y-67935771D02*
X172016666Y-68173866D01*
X172016666Y-68173866D02*
X172064285Y-68364342D01*
X172064285Y-68364342D02*
X172111904Y-68459580D01*
X172111904Y-68459580D02*
X172159523Y-68507200D01*
X172159523Y-68507200D02*
X172254761Y-68554819D01*
X172254761Y-68554819D02*
X172349999Y-68554819D01*
X172349999Y-68554819D02*
X172445237Y-68507200D01*
X172445237Y-68507200D02*
X172492856Y-68459580D01*
X172492856Y-68459580D02*
X172540475Y-68364342D01*
X172540475Y-68364342D02*
X172588094Y-68173866D01*
X172588094Y-68173866D02*
X172588094Y-67935771D01*
X172588094Y-67935771D02*
X172540475Y-67745295D01*
X172540475Y-67745295D02*
X172492856Y-67650057D01*
X172492856Y-67650057D02*
X172445237Y-67602438D01*
X172445237Y-67602438D02*
X172349999Y-67554819D01*
X171588094Y-68554819D02*
X171588094Y-67554819D01*
X171492856Y-68173866D02*
X171207142Y-68554819D01*
X171207142Y-67888152D02*
X171588094Y-68269104D01*
X151234189Y-75642295D02*
X151500856Y-75261342D01*
X151691332Y-75642295D02*
X151691332Y-74842295D01*
X151691332Y-74842295D02*
X151386570Y-74842295D01*
X151386570Y-74842295D02*
X151310380Y-74880390D01*
X151310380Y-74880390D02*
X151272285Y-74918485D01*
X151272285Y-74918485D02*
X151234189Y-74994676D01*
X151234189Y-74994676D02*
X151234189Y-75108961D01*
X151234189Y-75108961D02*
X151272285Y-75185152D01*
X151272285Y-75185152D02*
X151310380Y-75223247D01*
X151310380Y-75223247D02*
X151386570Y-75261342D01*
X151386570Y-75261342D02*
X151691332Y-75261342D01*
X151005618Y-74842295D02*
X150738951Y-75642295D01*
X150738951Y-75642295D02*
X150472285Y-74842295D01*
X150281809Y-74842295D02*
X149748475Y-74842295D01*
X149748475Y-74842295D02*
X150091333Y-75642295D01*
X146861904Y-75031009D02*
X146719047Y-75078628D01*
X146719047Y-75078628D02*
X146671428Y-75126247D01*
X146671428Y-75126247D02*
X146623809Y-75221485D01*
X146623809Y-75221485D02*
X146623809Y-75364342D01*
X146623809Y-75364342D02*
X146671428Y-75459580D01*
X146671428Y-75459580D02*
X146719047Y-75507200D01*
X146719047Y-75507200D02*
X146814285Y-75554819D01*
X146814285Y-75554819D02*
X147195237Y-75554819D01*
X147195237Y-75554819D02*
X147195237Y-74554819D01*
X147195237Y-74554819D02*
X146861904Y-74554819D01*
X146861904Y-74554819D02*
X146766666Y-74602438D01*
X146766666Y-74602438D02*
X146719047Y-74650057D01*
X146719047Y-74650057D02*
X146671428Y-74745295D01*
X146671428Y-74745295D02*
X146671428Y-74840533D01*
X146671428Y-74840533D02*
X146719047Y-74935771D01*
X146719047Y-74935771D02*
X146766666Y-74983390D01*
X146766666Y-74983390D02*
X146861904Y-75031009D01*
X146861904Y-75031009D02*
X147195237Y-75031009D01*
X145671428Y-75554819D02*
X146242856Y-75554819D01*
X145957142Y-75554819D02*
X145957142Y-74554819D01*
X145957142Y-74554819D02*
X146052380Y-74697676D01*
X146052380Y-74697676D02*
X146147618Y-74792914D01*
X146147618Y-74792914D02*
X146242856Y-74840533D01*
X145052380Y-74554819D02*
X144957142Y-74554819D01*
X144957142Y-74554819D02*
X144861904Y-74602438D01*
X144861904Y-74602438D02*
X144814285Y-74650057D01*
X144814285Y-74650057D02*
X144766666Y-74745295D01*
X144766666Y-74745295D02*
X144719047Y-74935771D01*
X144719047Y-74935771D02*
X144719047Y-75173866D01*
X144719047Y-75173866D02*
X144766666Y-75364342D01*
X144766666Y-75364342D02*
X144814285Y-75459580D01*
X144814285Y-75459580D02*
X144861904Y-75507200D01*
X144861904Y-75507200D02*
X144957142Y-75554819D01*
X144957142Y-75554819D02*
X145052380Y-75554819D01*
X145052380Y-75554819D02*
X145147618Y-75507200D01*
X145147618Y-75507200D02*
X145195237Y-75459580D01*
X145195237Y-75459580D02*
X145242856Y-75364342D01*
X145242856Y-75364342D02*
X145290475Y-75173866D01*
X145290475Y-75173866D02*
X145290475Y-74935771D01*
X145290475Y-74935771D02*
X145242856Y-74745295D01*
X145242856Y-74745295D02*
X145195237Y-74650057D01*
X145195237Y-74650057D02*
X145147618Y-74602438D01*
X145147618Y-74602438D02*
X145052380Y-74554819D01*
X144099999Y-74554819D02*
X144004761Y-74554819D01*
X144004761Y-74554819D02*
X143909523Y-74602438D01*
X143909523Y-74602438D02*
X143861904Y-74650057D01*
X143861904Y-74650057D02*
X143814285Y-74745295D01*
X143814285Y-74745295D02*
X143766666Y-74935771D01*
X143766666Y-74935771D02*
X143766666Y-75173866D01*
X143766666Y-75173866D02*
X143814285Y-75364342D01*
X143814285Y-75364342D02*
X143861904Y-75459580D01*
X143861904Y-75459580D02*
X143909523Y-75507200D01*
X143909523Y-75507200D02*
X144004761Y-75554819D01*
X144004761Y-75554819D02*
X144099999Y-75554819D01*
X144099999Y-75554819D02*
X144195237Y-75507200D01*
X144195237Y-75507200D02*
X144242856Y-75459580D01*
X144242856Y-75459580D02*
X144290475Y-75364342D01*
X144290475Y-75364342D02*
X144338094Y-75173866D01*
X144338094Y-75173866D02*
X144338094Y-74935771D01*
X144338094Y-74935771D02*
X144290475Y-74745295D01*
X144290475Y-74745295D02*
X144242856Y-74650057D01*
X144242856Y-74650057D02*
X144195237Y-74602438D01*
X144195237Y-74602438D02*
X144099999Y-74554819D01*
X143338094Y-75554819D02*
X143338094Y-74554819D01*
X143242856Y-75173866D02*
X142957142Y-75554819D01*
X142957142Y-74888152D02*
X143338094Y-75269104D01*
X187296666Y-132842295D02*
X187296666Y-133413723D01*
X187296666Y-133413723D02*
X187334761Y-133528009D01*
X187334761Y-133528009D02*
X187410952Y-133604200D01*
X187410952Y-133604200D02*
X187525237Y-133642295D01*
X187525237Y-133642295D02*
X187601428Y-133642295D01*
X186496666Y-133642295D02*
X186953809Y-133642295D01*
X186725237Y-133642295D02*
X186725237Y-132842295D01*
X186725237Y-132842295D02*
X186801428Y-132956580D01*
X186801428Y-132956580D02*
X186877618Y-133032771D01*
X186877618Y-133032771D02*
X186953809Y-133070866D01*
X155296666Y-132842295D02*
X155296666Y-133413723D01*
X155296666Y-133413723D02*
X155334761Y-133528009D01*
X155334761Y-133528009D02*
X155410952Y-133604200D01*
X155410952Y-133604200D02*
X155525237Y-133642295D01*
X155525237Y-133642295D02*
X155601428Y-133642295D01*
X154991904Y-132842295D02*
X154496666Y-132842295D01*
X154496666Y-132842295D02*
X154763332Y-133147057D01*
X154763332Y-133147057D02*
X154649047Y-133147057D01*
X154649047Y-133147057D02*
X154572856Y-133185152D01*
X154572856Y-133185152D02*
X154534761Y-133223247D01*
X154534761Y-133223247D02*
X154496666Y-133299438D01*
X154496666Y-133299438D02*
X154496666Y-133489914D01*
X154496666Y-133489914D02*
X154534761Y-133566104D01*
X154534761Y-133566104D02*
X154572856Y-133604200D01*
X154572856Y-133604200D02*
X154649047Y-133642295D01*
X154649047Y-133642295D02*
X154877618Y-133642295D01*
X154877618Y-133642295D02*
X154953809Y-133604200D01*
X154953809Y-133604200D02*
X154991904Y-133566104D01*
X161162295Y-118463333D02*
X161733723Y-118463333D01*
X161733723Y-118463333D02*
X161848009Y-118425238D01*
X161848009Y-118425238D02*
X161924200Y-118349047D01*
X161924200Y-118349047D02*
X161962295Y-118234762D01*
X161962295Y-118234762D02*
X161962295Y-118158571D01*
X161162295Y-119225238D02*
X161162295Y-118844286D01*
X161162295Y-118844286D02*
X161543247Y-118806190D01*
X161543247Y-118806190D02*
X161505152Y-118844286D01*
X161505152Y-118844286D02*
X161467057Y-118920476D01*
X161467057Y-118920476D02*
X161467057Y-119110952D01*
X161467057Y-119110952D02*
X161505152Y-119187143D01*
X161505152Y-119187143D02*
X161543247Y-119225238D01*
X161543247Y-119225238D02*
X161619438Y-119263333D01*
X161619438Y-119263333D02*
X161809914Y-119263333D01*
X161809914Y-119263333D02*
X161886104Y-119225238D01*
X161886104Y-119225238D02*
X161924200Y-119187143D01*
X161924200Y-119187143D02*
X161962295Y-119110952D01*
X161962295Y-119110952D02*
X161962295Y-118920476D01*
X161962295Y-118920476D02*
X161924200Y-118844286D01*
X161924200Y-118844286D02*
X161886104Y-118806190D01*
X146226189Y-97662295D02*
X146492856Y-97281342D01*
X146683332Y-97662295D02*
X146683332Y-96862295D01*
X146683332Y-96862295D02*
X146378570Y-96862295D01*
X146378570Y-96862295D02*
X146302380Y-96900390D01*
X146302380Y-96900390D02*
X146264285Y-96938485D01*
X146264285Y-96938485D02*
X146226189Y-97014676D01*
X146226189Y-97014676D02*
X146226189Y-97128961D01*
X146226189Y-97128961D02*
X146264285Y-97205152D01*
X146264285Y-97205152D02*
X146302380Y-97243247D01*
X146302380Y-97243247D02*
X146378570Y-97281342D01*
X146378570Y-97281342D02*
X146683332Y-97281342D01*
X145997618Y-96862295D02*
X145730951Y-97662295D01*
X145730951Y-97662295D02*
X145464285Y-96862295D01*
X145159523Y-97662295D02*
X145007142Y-97662295D01*
X145007142Y-97662295D02*
X144930952Y-97624200D01*
X144930952Y-97624200D02*
X144892856Y-97586104D01*
X144892856Y-97586104D02*
X144816666Y-97471819D01*
X144816666Y-97471819D02*
X144778571Y-97319438D01*
X144778571Y-97319438D02*
X144778571Y-97014676D01*
X144778571Y-97014676D02*
X144816666Y-96938485D01*
X144816666Y-96938485D02*
X144854761Y-96900390D01*
X144854761Y-96900390D02*
X144930952Y-96862295D01*
X144930952Y-96862295D02*
X145083333Y-96862295D01*
X145083333Y-96862295D02*
X145159523Y-96900390D01*
X145159523Y-96900390D02*
X145197618Y-96938485D01*
X145197618Y-96938485D02*
X145235714Y-97014676D01*
X145235714Y-97014676D02*
X145235714Y-97205152D01*
X145235714Y-97205152D02*
X145197618Y-97281342D01*
X145197618Y-97281342D02*
X145159523Y-97319438D01*
X145159523Y-97319438D02*
X145083333Y-97357533D01*
X145083333Y-97357533D02*
X144930952Y-97357533D01*
X144930952Y-97357533D02*
X144854761Y-97319438D01*
X144854761Y-97319438D02*
X144816666Y-97281342D01*
X144816666Y-97281342D02*
X144778571Y-97205152D01*
X151611904Y-97331009D02*
X151469047Y-97378628D01*
X151469047Y-97378628D02*
X151421428Y-97426247D01*
X151421428Y-97426247D02*
X151373809Y-97521485D01*
X151373809Y-97521485D02*
X151373809Y-97664342D01*
X151373809Y-97664342D02*
X151421428Y-97759580D01*
X151421428Y-97759580D02*
X151469047Y-97807200D01*
X151469047Y-97807200D02*
X151564285Y-97854819D01*
X151564285Y-97854819D02*
X151945237Y-97854819D01*
X151945237Y-97854819D02*
X151945237Y-96854819D01*
X151945237Y-96854819D02*
X151611904Y-96854819D01*
X151611904Y-96854819D02*
X151516666Y-96902438D01*
X151516666Y-96902438D02*
X151469047Y-96950057D01*
X151469047Y-96950057D02*
X151421428Y-97045295D01*
X151421428Y-97045295D02*
X151421428Y-97140533D01*
X151421428Y-97140533D02*
X151469047Y-97235771D01*
X151469047Y-97235771D02*
X151516666Y-97283390D01*
X151516666Y-97283390D02*
X151611904Y-97331009D01*
X151611904Y-97331009D02*
X151945237Y-97331009D01*
X150421428Y-97854819D02*
X150992856Y-97854819D01*
X150707142Y-97854819D02*
X150707142Y-96854819D01*
X150707142Y-96854819D02*
X150802380Y-96997676D01*
X150802380Y-96997676D02*
X150897618Y-97092914D01*
X150897618Y-97092914D02*
X150992856Y-97140533D01*
X149802380Y-96854819D02*
X149707142Y-96854819D01*
X149707142Y-96854819D02*
X149611904Y-96902438D01*
X149611904Y-96902438D02*
X149564285Y-96950057D01*
X149564285Y-96950057D02*
X149516666Y-97045295D01*
X149516666Y-97045295D02*
X149469047Y-97235771D01*
X149469047Y-97235771D02*
X149469047Y-97473866D01*
X149469047Y-97473866D02*
X149516666Y-97664342D01*
X149516666Y-97664342D02*
X149564285Y-97759580D01*
X149564285Y-97759580D02*
X149611904Y-97807200D01*
X149611904Y-97807200D02*
X149707142Y-97854819D01*
X149707142Y-97854819D02*
X149802380Y-97854819D01*
X149802380Y-97854819D02*
X149897618Y-97807200D01*
X149897618Y-97807200D02*
X149945237Y-97759580D01*
X149945237Y-97759580D02*
X149992856Y-97664342D01*
X149992856Y-97664342D02*
X150040475Y-97473866D01*
X150040475Y-97473866D02*
X150040475Y-97235771D01*
X150040475Y-97235771D02*
X149992856Y-97045295D01*
X149992856Y-97045295D02*
X149945237Y-96950057D01*
X149945237Y-96950057D02*
X149897618Y-96902438D01*
X149897618Y-96902438D02*
X149802380Y-96854819D01*
X148849999Y-96854819D02*
X148754761Y-96854819D01*
X148754761Y-96854819D02*
X148659523Y-96902438D01*
X148659523Y-96902438D02*
X148611904Y-96950057D01*
X148611904Y-96950057D02*
X148564285Y-97045295D01*
X148564285Y-97045295D02*
X148516666Y-97235771D01*
X148516666Y-97235771D02*
X148516666Y-97473866D01*
X148516666Y-97473866D02*
X148564285Y-97664342D01*
X148564285Y-97664342D02*
X148611904Y-97759580D01*
X148611904Y-97759580D02*
X148659523Y-97807200D01*
X148659523Y-97807200D02*
X148754761Y-97854819D01*
X148754761Y-97854819D02*
X148849999Y-97854819D01*
X148849999Y-97854819D02*
X148945237Y-97807200D01*
X148945237Y-97807200D02*
X148992856Y-97759580D01*
X148992856Y-97759580D02*
X149040475Y-97664342D01*
X149040475Y-97664342D02*
X149088094Y-97473866D01*
X149088094Y-97473866D02*
X149088094Y-97235771D01*
X149088094Y-97235771D02*
X149040475Y-97045295D01*
X149040475Y-97045295D02*
X148992856Y-96950057D01*
X148992856Y-96950057D02*
X148945237Y-96902438D01*
X148945237Y-96902438D02*
X148849999Y-96854819D01*
X148088094Y-97854819D02*
X148088094Y-96854819D01*
X147992856Y-97473866D02*
X147707142Y-97854819D01*
X147707142Y-97188152D02*
X148088094Y-97569104D01*
X146226189Y-94162295D02*
X146492856Y-93781342D01*
X146683332Y-94162295D02*
X146683332Y-93362295D01*
X146683332Y-93362295D02*
X146378570Y-93362295D01*
X146378570Y-93362295D02*
X146302380Y-93400390D01*
X146302380Y-93400390D02*
X146264285Y-93438485D01*
X146264285Y-93438485D02*
X146226189Y-93514676D01*
X146226189Y-93514676D02*
X146226189Y-93628961D01*
X146226189Y-93628961D02*
X146264285Y-93705152D01*
X146264285Y-93705152D02*
X146302380Y-93743247D01*
X146302380Y-93743247D02*
X146378570Y-93781342D01*
X146378570Y-93781342D02*
X146683332Y-93781342D01*
X145997618Y-93362295D02*
X145730951Y-94162295D01*
X145730951Y-94162295D02*
X145464285Y-93362295D01*
X145273809Y-93362295D02*
X144778571Y-93362295D01*
X144778571Y-93362295D02*
X145045237Y-93667057D01*
X145045237Y-93667057D02*
X144930952Y-93667057D01*
X144930952Y-93667057D02*
X144854761Y-93705152D01*
X144854761Y-93705152D02*
X144816666Y-93743247D01*
X144816666Y-93743247D02*
X144778571Y-93819438D01*
X144778571Y-93819438D02*
X144778571Y-94009914D01*
X144778571Y-94009914D02*
X144816666Y-94086104D01*
X144816666Y-94086104D02*
X144854761Y-94124200D01*
X144854761Y-94124200D02*
X144930952Y-94162295D01*
X144930952Y-94162295D02*
X145159523Y-94162295D01*
X145159523Y-94162295D02*
X145235714Y-94124200D01*
X145235714Y-94124200D02*
X145273809Y-94086104D01*
X183234189Y-75642295D02*
X183500856Y-75261342D01*
X183691332Y-75642295D02*
X183691332Y-74842295D01*
X183691332Y-74842295D02*
X183386570Y-74842295D01*
X183386570Y-74842295D02*
X183310380Y-74880390D01*
X183310380Y-74880390D02*
X183272285Y-74918485D01*
X183272285Y-74918485D02*
X183234189Y-74994676D01*
X183234189Y-74994676D02*
X183234189Y-75108961D01*
X183234189Y-75108961D02*
X183272285Y-75185152D01*
X183272285Y-75185152D02*
X183310380Y-75223247D01*
X183310380Y-75223247D02*
X183386570Y-75261342D01*
X183386570Y-75261342D02*
X183691332Y-75261342D01*
X183005618Y-74842295D02*
X182738951Y-75642295D01*
X182738951Y-75642295D02*
X182472285Y-74842295D01*
X181824666Y-74842295D02*
X182205618Y-74842295D01*
X182205618Y-74842295D02*
X182243714Y-75223247D01*
X182243714Y-75223247D02*
X182205618Y-75185152D01*
X182205618Y-75185152D02*
X182129428Y-75147057D01*
X182129428Y-75147057D02*
X181938952Y-75147057D01*
X181938952Y-75147057D02*
X181862761Y-75185152D01*
X181862761Y-75185152D02*
X181824666Y-75223247D01*
X181824666Y-75223247D02*
X181786571Y-75299438D01*
X181786571Y-75299438D02*
X181786571Y-75489914D01*
X181786571Y-75489914D02*
X181824666Y-75566104D01*
X181824666Y-75566104D02*
X181862761Y-75604200D01*
X181862761Y-75604200D02*
X181938952Y-75642295D01*
X181938952Y-75642295D02*
X182129428Y-75642295D01*
X182129428Y-75642295D02*
X182205618Y-75604200D01*
X182205618Y-75604200D02*
X182243714Y-75566104D01*
X177861904Y-74981009D02*
X177719047Y-75028628D01*
X177719047Y-75028628D02*
X177671428Y-75076247D01*
X177671428Y-75076247D02*
X177623809Y-75171485D01*
X177623809Y-75171485D02*
X177623809Y-75314342D01*
X177623809Y-75314342D02*
X177671428Y-75409580D01*
X177671428Y-75409580D02*
X177719047Y-75457200D01*
X177719047Y-75457200D02*
X177814285Y-75504819D01*
X177814285Y-75504819D02*
X178195237Y-75504819D01*
X178195237Y-75504819D02*
X178195237Y-74504819D01*
X178195237Y-74504819D02*
X177861904Y-74504819D01*
X177861904Y-74504819D02*
X177766666Y-74552438D01*
X177766666Y-74552438D02*
X177719047Y-74600057D01*
X177719047Y-74600057D02*
X177671428Y-74695295D01*
X177671428Y-74695295D02*
X177671428Y-74790533D01*
X177671428Y-74790533D02*
X177719047Y-74885771D01*
X177719047Y-74885771D02*
X177766666Y-74933390D01*
X177766666Y-74933390D02*
X177861904Y-74981009D01*
X177861904Y-74981009D02*
X178195237Y-74981009D01*
X176671428Y-75504819D02*
X177242856Y-75504819D01*
X176957142Y-75504819D02*
X176957142Y-74504819D01*
X176957142Y-74504819D02*
X177052380Y-74647676D01*
X177052380Y-74647676D02*
X177147618Y-74742914D01*
X177147618Y-74742914D02*
X177242856Y-74790533D01*
X176052380Y-74504819D02*
X175957142Y-74504819D01*
X175957142Y-74504819D02*
X175861904Y-74552438D01*
X175861904Y-74552438D02*
X175814285Y-74600057D01*
X175814285Y-74600057D02*
X175766666Y-74695295D01*
X175766666Y-74695295D02*
X175719047Y-74885771D01*
X175719047Y-74885771D02*
X175719047Y-75123866D01*
X175719047Y-75123866D02*
X175766666Y-75314342D01*
X175766666Y-75314342D02*
X175814285Y-75409580D01*
X175814285Y-75409580D02*
X175861904Y-75457200D01*
X175861904Y-75457200D02*
X175957142Y-75504819D01*
X175957142Y-75504819D02*
X176052380Y-75504819D01*
X176052380Y-75504819D02*
X176147618Y-75457200D01*
X176147618Y-75457200D02*
X176195237Y-75409580D01*
X176195237Y-75409580D02*
X176242856Y-75314342D01*
X176242856Y-75314342D02*
X176290475Y-75123866D01*
X176290475Y-75123866D02*
X176290475Y-74885771D01*
X176290475Y-74885771D02*
X176242856Y-74695295D01*
X176242856Y-74695295D02*
X176195237Y-74600057D01*
X176195237Y-74600057D02*
X176147618Y-74552438D01*
X176147618Y-74552438D02*
X176052380Y-74504819D01*
X175099999Y-74504819D02*
X175004761Y-74504819D01*
X175004761Y-74504819D02*
X174909523Y-74552438D01*
X174909523Y-74552438D02*
X174861904Y-74600057D01*
X174861904Y-74600057D02*
X174814285Y-74695295D01*
X174814285Y-74695295D02*
X174766666Y-74885771D01*
X174766666Y-74885771D02*
X174766666Y-75123866D01*
X174766666Y-75123866D02*
X174814285Y-75314342D01*
X174814285Y-75314342D02*
X174861904Y-75409580D01*
X174861904Y-75409580D02*
X174909523Y-75457200D01*
X174909523Y-75457200D02*
X175004761Y-75504819D01*
X175004761Y-75504819D02*
X175099999Y-75504819D01*
X175099999Y-75504819D02*
X175195237Y-75457200D01*
X175195237Y-75457200D02*
X175242856Y-75409580D01*
X175242856Y-75409580D02*
X175290475Y-75314342D01*
X175290475Y-75314342D02*
X175338094Y-75123866D01*
X175338094Y-75123866D02*
X175338094Y-74885771D01*
X175338094Y-74885771D02*
X175290475Y-74695295D01*
X175290475Y-74695295D02*
X175242856Y-74600057D01*
X175242856Y-74600057D02*
X175195237Y-74552438D01*
X175195237Y-74552438D02*
X175099999Y-74504819D01*
X174338094Y-75504819D02*
X174338094Y-74504819D01*
X174242856Y-75123866D02*
X173957142Y-75504819D01*
X173957142Y-74838152D02*
X174338094Y-75219104D01*
X179166667Y-54874200D02*
X179052381Y-54912295D01*
X179052381Y-54912295D02*
X178861905Y-54912295D01*
X178861905Y-54912295D02*
X178785714Y-54874200D01*
X178785714Y-54874200D02*
X178747619Y-54836104D01*
X178747619Y-54836104D02*
X178709524Y-54759914D01*
X178709524Y-54759914D02*
X178709524Y-54683723D01*
X178709524Y-54683723D02*
X178747619Y-54607533D01*
X178747619Y-54607533D02*
X178785714Y-54569438D01*
X178785714Y-54569438D02*
X178861905Y-54531342D01*
X178861905Y-54531342D02*
X179014286Y-54493247D01*
X179014286Y-54493247D02*
X179090476Y-54455152D01*
X179090476Y-54455152D02*
X179128571Y-54417057D01*
X179128571Y-54417057D02*
X179166667Y-54340866D01*
X179166667Y-54340866D02*
X179166667Y-54264676D01*
X179166667Y-54264676D02*
X179128571Y-54188485D01*
X179128571Y-54188485D02*
X179090476Y-54150390D01*
X179090476Y-54150390D02*
X179014286Y-54112295D01*
X179014286Y-54112295D02*
X178823809Y-54112295D01*
X178823809Y-54112295D02*
X178709524Y-54150390D01*
X178442857Y-54112295D02*
X178252381Y-54912295D01*
X178252381Y-54912295D02*
X178100000Y-54340866D01*
X178100000Y-54340866D02*
X177947619Y-54912295D01*
X177947619Y-54912295D02*
X177757143Y-54112295D01*
X177033333Y-54912295D02*
X177490476Y-54912295D01*
X177261904Y-54912295D02*
X177261904Y-54112295D01*
X177261904Y-54112295D02*
X177338095Y-54226580D01*
X177338095Y-54226580D02*
X177414285Y-54302771D01*
X177414285Y-54302771D02*
X177490476Y-54340866D01*
X145152295Y-118403333D02*
X145723723Y-118403333D01*
X145723723Y-118403333D02*
X145838009Y-118365238D01*
X145838009Y-118365238D02*
X145914200Y-118289047D01*
X145914200Y-118289047D02*
X145952295Y-118174762D01*
X145952295Y-118174762D02*
X145952295Y-118098571D01*
X145152295Y-119127143D02*
X145152295Y-118974762D01*
X145152295Y-118974762D02*
X145190390Y-118898571D01*
X145190390Y-118898571D02*
X145228485Y-118860476D01*
X145228485Y-118860476D02*
X145342771Y-118784286D01*
X145342771Y-118784286D02*
X145495152Y-118746190D01*
X145495152Y-118746190D02*
X145799914Y-118746190D01*
X145799914Y-118746190D02*
X145876104Y-118784286D01*
X145876104Y-118784286D02*
X145914200Y-118822381D01*
X145914200Y-118822381D02*
X145952295Y-118898571D01*
X145952295Y-118898571D02*
X145952295Y-119050952D01*
X145952295Y-119050952D02*
X145914200Y-119127143D01*
X145914200Y-119127143D02*
X145876104Y-119165238D01*
X145876104Y-119165238D02*
X145799914Y-119203333D01*
X145799914Y-119203333D02*
X145609438Y-119203333D01*
X145609438Y-119203333D02*
X145533247Y-119165238D01*
X145533247Y-119165238D02*
X145495152Y-119127143D01*
X145495152Y-119127143D02*
X145457057Y-119050952D01*
X145457057Y-119050952D02*
X145457057Y-118898571D01*
X145457057Y-118898571D02*
X145495152Y-118822381D01*
X145495152Y-118822381D02*
X145533247Y-118784286D01*
X145533247Y-118784286D02*
X145609438Y-118746190D01*
X183476189Y-117362295D02*
X183742856Y-116981342D01*
X183933332Y-117362295D02*
X183933332Y-116562295D01*
X183933332Y-116562295D02*
X183628570Y-116562295D01*
X183628570Y-116562295D02*
X183552380Y-116600390D01*
X183552380Y-116600390D02*
X183514285Y-116638485D01*
X183514285Y-116638485D02*
X183476189Y-116714676D01*
X183476189Y-116714676D02*
X183476189Y-116828961D01*
X183476189Y-116828961D02*
X183514285Y-116905152D01*
X183514285Y-116905152D02*
X183552380Y-116943247D01*
X183552380Y-116943247D02*
X183628570Y-116981342D01*
X183628570Y-116981342D02*
X183933332Y-116981342D01*
X183247618Y-116562295D02*
X182980951Y-117362295D01*
X182980951Y-117362295D02*
X182714285Y-116562295D01*
X182104761Y-116828961D02*
X182104761Y-117362295D01*
X182295237Y-116524200D02*
X182485714Y-117095628D01*
X182485714Y-117095628D02*
X181990475Y-117095628D01*
X188485714Y-116831009D02*
X188342857Y-116878628D01*
X188342857Y-116878628D02*
X188295238Y-116926247D01*
X188295238Y-116926247D02*
X188247619Y-117021485D01*
X188247619Y-117021485D02*
X188247619Y-117164342D01*
X188247619Y-117164342D02*
X188295238Y-117259580D01*
X188295238Y-117259580D02*
X188342857Y-117307200D01*
X188342857Y-117307200D02*
X188438095Y-117354819D01*
X188438095Y-117354819D02*
X188819047Y-117354819D01*
X188819047Y-117354819D02*
X188819047Y-116354819D01*
X188819047Y-116354819D02*
X188485714Y-116354819D01*
X188485714Y-116354819D02*
X188390476Y-116402438D01*
X188390476Y-116402438D02*
X188342857Y-116450057D01*
X188342857Y-116450057D02*
X188295238Y-116545295D01*
X188295238Y-116545295D02*
X188295238Y-116640533D01*
X188295238Y-116640533D02*
X188342857Y-116735771D01*
X188342857Y-116735771D02*
X188390476Y-116783390D01*
X188390476Y-116783390D02*
X188485714Y-116831009D01*
X188485714Y-116831009D02*
X188819047Y-116831009D01*
X187866666Y-116450057D02*
X187819047Y-116402438D01*
X187819047Y-116402438D02*
X187723809Y-116354819D01*
X187723809Y-116354819D02*
X187485714Y-116354819D01*
X187485714Y-116354819D02*
X187390476Y-116402438D01*
X187390476Y-116402438D02*
X187342857Y-116450057D01*
X187342857Y-116450057D02*
X187295238Y-116545295D01*
X187295238Y-116545295D02*
X187295238Y-116640533D01*
X187295238Y-116640533D02*
X187342857Y-116783390D01*
X187342857Y-116783390D02*
X187914285Y-117354819D01*
X187914285Y-117354819D02*
X187295238Y-117354819D01*
X186390476Y-116354819D02*
X186866666Y-116354819D01*
X186866666Y-116354819D02*
X186914285Y-116831009D01*
X186914285Y-116831009D02*
X186866666Y-116783390D01*
X186866666Y-116783390D02*
X186771428Y-116735771D01*
X186771428Y-116735771D02*
X186533333Y-116735771D01*
X186533333Y-116735771D02*
X186438095Y-116783390D01*
X186438095Y-116783390D02*
X186390476Y-116831009D01*
X186390476Y-116831009D02*
X186342857Y-116926247D01*
X186342857Y-116926247D02*
X186342857Y-117164342D01*
X186342857Y-117164342D02*
X186390476Y-117259580D01*
X186390476Y-117259580D02*
X186438095Y-117307200D01*
X186438095Y-117307200D02*
X186533333Y-117354819D01*
X186533333Y-117354819D02*
X186771428Y-117354819D01*
X186771428Y-117354819D02*
X186866666Y-117307200D01*
X186866666Y-117307200D02*
X186914285Y-117259580D01*
X185914285Y-117354819D02*
X185914285Y-116354819D01*
X185819047Y-116973866D02*
X185533333Y-117354819D01*
X185533333Y-116688152D02*
X185914285Y-117069104D01*
X175495475Y-136172295D02*
X175495475Y-135372295D01*
X175495475Y-135372295D02*
X175304999Y-135372295D01*
X175304999Y-135372295D02*
X175190713Y-135410390D01*
X175190713Y-135410390D02*
X175114523Y-135486580D01*
X175114523Y-135486580D02*
X175076428Y-135562771D01*
X175076428Y-135562771D02*
X175038332Y-135715152D01*
X175038332Y-135715152D02*
X175038332Y-135829438D01*
X175038332Y-135829438D02*
X175076428Y-135981819D01*
X175076428Y-135981819D02*
X175114523Y-136058009D01*
X175114523Y-136058009D02*
X175190713Y-136134200D01*
X175190713Y-136134200D02*
X175304999Y-136172295D01*
X175304999Y-136172295D02*
X175495475Y-136172295D01*
X174276428Y-136172295D02*
X174733571Y-136172295D01*
X174504999Y-136172295D02*
X174504999Y-135372295D01*
X174504999Y-135372295D02*
X174581190Y-135486580D01*
X174581190Y-135486580D02*
X174657380Y-135562771D01*
X174657380Y-135562771D02*
X174733571Y-135600866D01*
X177152295Y-118443333D02*
X177723723Y-118443333D01*
X177723723Y-118443333D02*
X177838009Y-118405238D01*
X177838009Y-118405238D02*
X177914200Y-118329047D01*
X177914200Y-118329047D02*
X177952295Y-118214762D01*
X177952295Y-118214762D02*
X177952295Y-118138571D01*
X177418961Y-119167143D02*
X177952295Y-119167143D01*
X177114200Y-118976667D02*
X177685628Y-118786190D01*
X177685628Y-118786190D02*
X177685628Y-119281429D01*
D11*
%TO.C,RV1*%
X178130000Y-81230000D02*
X187870000Y-81230000D01*
X178130000Y-83540000D02*
X178130000Y-81230000D01*
X178130000Y-92820000D02*
X178130000Y-88874000D01*
X178130000Y-92820000D02*
X179620000Y-92820000D01*
X181340000Y-92820000D02*
X182170000Y-92820000D01*
X183790000Y-92820000D02*
X184320000Y-92820000D01*
X186690000Y-92820000D02*
X187870000Y-92820000D01*
X187870000Y-83540000D02*
X187870000Y-81230000D01*
X187880000Y-92820000D02*
X187880000Y-88874000D01*
%TO.C,RV2*%
X162120000Y-90080000D02*
X162120000Y-94026000D01*
X162130000Y-99360000D02*
X162130000Y-101670000D01*
X163310000Y-90080000D02*
X162130000Y-90080000D01*
X166210000Y-90080000D02*
X165680000Y-90080000D01*
X168660000Y-90080000D02*
X167830000Y-90080000D01*
X171870000Y-90080000D02*
X170380000Y-90080000D01*
X171870000Y-90080000D02*
X171870000Y-94026000D01*
X171870000Y-99360000D02*
X171870000Y-101670000D01*
X171870000Y-101670000D02*
X162130000Y-101670000D01*
%TO.C,RV6*%
X162120000Y-69060000D02*
X162120000Y-73780000D01*
X162130000Y-77590000D02*
X162130000Y-80650000D01*
X163310000Y-69060000D02*
X162130000Y-69060000D01*
X166210000Y-69060000D02*
X165680000Y-69060000D01*
X168660000Y-69060000D02*
X167830000Y-69060000D01*
X171870000Y-69060000D02*
X170380000Y-69060000D01*
X171870000Y-69060000D02*
X171870000Y-73780000D01*
X171870000Y-77590000D02*
X171870000Y-80650000D01*
X171870000Y-80650000D02*
X162130000Y-80650000D01*
%TO.C,RV7*%
X146130000Y-60230000D02*
X155870000Y-60230000D01*
X146130000Y-63290000D02*
X146130000Y-60230000D01*
X146130000Y-71820000D02*
X146130000Y-67100000D01*
X146130000Y-71820000D02*
X147620000Y-71820000D01*
X149340000Y-71820000D02*
X150170000Y-71820000D01*
X151790000Y-71820000D02*
X152320000Y-71820000D01*
X154690000Y-71820000D02*
X155870000Y-71820000D01*
X155870000Y-63290000D02*
X155870000Y-60230000D01*
X155880000Y-71820000D02*
X155880000Y-67100000D01*
%TO.C,J1*%
X178500000Y-134180000D02*
X178500000Y-144680000D01*
X178500000Y-134180000D02*
X182280000Y-134180000D01*
X178500000Y-144680000D02*
X182200000Y-144680000D01*
X183720000Y-134180000D02*
X187500000Y-134180000D01*
X183800000Y-144680000D02*
X187500000Y-144680000D01*
X184230000Y-131030000D02*
X183370000Y-131030000D01*
X184230000Y-131030000D02*
X184230000Y-131830000D01*
X187500000Y-134180000D02*
X187500000Y-144680000D01*
X184800000Y-138680000D02*
G75*
G02*
X181200000Y-138680000I-1800000J0D01*
G01*
X181200000Y-138680000D02*
G75*
G02*
X184800000Y-138680000I1800000J0D01*
G01*
%TO.C,J3*%
X146500000Y-134180000D02*
X146500000Y-144680000D01*
X146500000Y-134180000D02*
X150280000Y-134180000D01*
X146500000Y-144680000D02*
X150200000Y-144680000D01*
X151720000Y-134180000D02*
X155500000Y-134180000D01*
X151800000Y-144680000D02*
X155500000Y-144680000D01*
X152230000Y-131030000D02*
X151370000Y-131030000D01*
X152230000Y-131030000D02*
X152230000Y-131830000D01*
X155500000Y-134180000D02*
X155500000Y-144680000D01*
X152800000Y-138680000D02*
G75*
G02*
X149200000Y-138680000I-1800000J0D01*
G01*
X149200000Y-138680000D02*
G75*
G02*
X152800000Y-138680000I1800000J0D01*
G01*
%TO.C,J5*%
X159350000Y-121530000D02*
X159350000Y-122390000D01*
X159350000Y-121530000D02*
X160150000Y-121530000D01*
X162500000Y-118260000D02*
X173000000Y-118260000D01*
X162500000Y-122040000D02*
X162500000Y-118260000D01*
X162500000Y-127260000D02*
X162500000Y-123480000D01*
X162500000Y-127260000D02*
X173000000Y-127260000D01*
X173000000Y-121960000D02*
X173000000Y-118260000D01*
X173000000Y-127260000D02*
X173000000Y-123560000D01*
X168800000Y-122760000D02*
G75*
G02*
X165200000Y-122760000I-1800000J0D01*
G01*
X165200000Y-122760000D02*
G75*
G02*
X168800000Y-122760000I1800000J0D01*
G01*
%TO.C,RV9*%
X146120000Y-100580000D02*
X146120000Y-105300000D01*
X146130000Y-109110000D02*
X146130000Y-112170000D01*
X147310000Y-100580000D02*
X146130000Y-100580000D01*
X150210000Y-100580000D02*
X149680000Y-100580000D01*
X152660000Y-100580000D02*
X151830000Y-100580000D01*
X155870000Y-100580000D02*
X154380000Y-100580000D01*
X155870000Y-100580000D02*
X155870000Y-105300000D01*
X155870000Y-109110000D02*
X155870000Y-112170000D01*
X155870000Y-112170000D02*
X146130000Y-112170000D01*
%TO.C,RV3*%
X146130000Y-81230000D02*
X155870000Y-81230000D01*
X146130000Y-83540000D02*
X146130000Y-81230000D01*
X146130000Y-92820000D02*
X146130000Y-88874000D01*
X146130000Y-92820000D02*
X147620000Y-92820000D01*
X149340000Y-92820000D02*
X150170000Y-92820000D01*
X151790000Y-92820000D02*
X152320000Y-92820000D01*
X154690000Y-92820000D02*
X155870000Y-92820000D01*
X155870000Y-83540000D02*
X155870000Y-81230000D01*
X155880000Y-92820000D02*
X155880000Y-88874000D01*
%TO.C,RV5*%
X178130000Y-60230000D02*
X187870000Y-60230000D01*
X178130000Y-63290000D02*
X178130000Y-60230000D01*
X178130000Y-71820000D02*
X178130000Y-67100000D01*
X178130000Y-71820000D02*
X179620000Y-71820000D01*
X181340000Y-71820000D02*
X182170000Y-71820000D01*
X183790000Y-71820000D02*
X184320000Y-71820000D01*
X186690000Y-71820000D02*
X187870000Y-71820000D01*
X187870000Y-63290000D02*
X187870000Y-60230000D01*
X187880000Y-71820000D02*
X187880000Y-67100000D01*
%TO.C,SW1*%
X159096898Y-56205540D02*
G75*
G02*
X159126000Y-53048999I7903102J1505541D01*
G01*
X160269000Y-50382000D02*
G75*
G02*
X162682000Y-47969000I6730990J-4317990D01*
G01*
X162682000Y-61431000D02*
G75*
G02*
X160269000Y-59018000I4317990J6730990D01*
G01*
X165494459Y-46796898D02*
G75*
G02*
X168651000Y-46826000I1505541J-7903102D01*
G01*
X168505541Y-62603102D02*
G75*
G02*
X165349000Y-62574000I-1505541J7903102D01*
G01*
X171318000Y-47969001D02*
G75*
G02*
X173731000Y-50382001I-4318000J-6730999D01*
G01*
X173731000Y-59018000D02*
G75*
G02*
X171318000Y-61431000I-6730990J4317990D01*
G01*
X174903097Y-53194459D02*
G75*
G02*
X174873995Y-56351000I-7903102J-1505541D01*
G01*
%TO.C,J6*%
X143340000Y-121470000D02*
X143340000Y-122330000D01*
X143340000Y-121470000D02*
X144140000Y-121470000D01*
X146490000Y-118200000D02*
X156990000Y-118200000D01*
X146490000Y-121980000D02*
X146490000Y-118200000D01*
X146490000Y-127200000D02*
X146490000Y-123420000D01*
X146490000Y-127200000D02*
X156990000Y-127200000D01*
X156990000Y-121900000D02*
X156990000Y-118200000D01*
X156990000Y-127200000D02*
X156990000Y-123500000D01*
X152790000Y-122700000D02*
G75*
G02*
X149190000Y-122700000I-1800000J0D01*
G01*
X149190000Y-122700000D02*
G75*
G02*
X152790000Y-122700000I1800000J0D01*
G01*
%TO.C,RV4*%
X178120000Y-102310000D02*
X187860000Y-102310000D01*
X178120000Y-105370000D02*
X178120000Y-102310000D01*
X178120000Y-113900000D02*
X178120000Y-109180000D01*
X178120000Y-113900000D02*
X179610000Y-113900000D01*
X181330000Y-113900000D02*
X182160000Y-113900000D01*
X183780000Y-113900000D02*
X184310000Y-113900000D01*
X186680000Y-113900000D02*
X187860000Y-113900000D01*
X187860000Y-105370000D02*
X187860000Y-102310000D01*
X187870000Y-113900000D02*
X187870000Y-109180000D01*
%TO.C,D1*%
X176465000Y-137534000D02*
X176465000Y-137690000D01*
X176465000Y-139850000D02*
X176465000Y-140006000D01*
X173233563Y-137690000D02*
G75*
G02*
X176465000Y-137534484I1671437J-1080000D01*
G01*
X173864039Y-137690000D02*
G75*
G02*
X175945961Y-137690000I1040961J-1080000D01*
G01*
X175945961Y-139850000D02*
G75*
G02*
X173864039Y-139850000I-1040961J1080000D01*
G01*
X176465000Y-140005516D02*
G75*
G02*
X173233563Y-139850000I-1560000J1235516D01*
G01*
%TO.C,J4*%
X175340000Y-121510000D02*
X175340000Y-122370000D01*
X175340000Y-121510000D02*
X176140000Y-121510000D01*
X178490000Y-118240000D02*
X188990000Y-118240000D01*
X178490000Y-122020000D02*
X178490000Y-118240000D01*
X178490000Y-127240000D02*
X178490000Y-123460000D01*
X178490000Y-127240000D02*
X188990000Y-127240000D01*
X188990000Y-121940000D02*
X188990000Y-118240000D01*
X188990000Y-127240000D02*
X188990000Y-123540000D01*
X184790000Y-122740000D02*
G75*
G02*
X181190000Y-122740000I-1800000J0D01*
G01*
X181190000Y-122740000D02*
G75*
G02*
X184790000Y-122740000I1800000J0D01*
G01*
%TD*%
M02*
